<svg xmlns="http://www.w3.org/2000/svg" xmlns:xlink="http://www.w3.org/1999/xlink" width="500" zoomAndPan="magnify" viewBox="0 0 375 374.999991" height="500" preserveAspectRatio="xMidYMid meet" version="1.0"><defs><g/><clipPath id="e6693df52e"><path d="M 256.058594 142.238281 L 293.558594 142.238281 L 293.558594 179.738281 L 256.058594 179.738281 Z M 256.058594 142.238281 " clip-rule="nonzero"/></clipPath><clipPath id="76a6508e38"><path d="M 210.53125 152.722656 L 227.214844 152.722656 L 227.214844 169.40625 L 210.53125 169.40625 Z M 210.53125 152.722656 " clip-rule="nonzero"/></clipPath><clipPath id="a5a59feef1"><path d="M 218.875 152.722656 C 214.265625 152.722656 210.53125 156.457031 210.53125 161.066406 C 210.53125 165.671875 214.265625 169.40625 218.875 169.40625 C 223.480469 169.40625 227.214844 165.671875 227.214844 161.066406 C 227.214844 156.457031 223.480469 152.722656 218.875 152.722656 Z M 218.875 152.722656 " clip-rule="nonzero"/></clipPath><clipPath id="9415431938"><path d="M 0.53125 0.722656 L 17.214844 0.722656 L 17.214844 17.40625 L 0.53125 17.40625 Z M 0.53125 0.722656 " clip-rule="nonzero"/></clipPath><clipPath id="dd2ef94b39"><path d="M 8.875 0.722656 C 4.265625 0.722656 0.53125 4.457031 0.53125 9.066406 C 0.53125 13.671875 4.265625 17.40625 8.875 17.40625 C 13.480469 17.40625 17.214844 13.671875 17.214844 9.066406 C 17.214844 4.457031 13.480469 0.722656 8.875 0.722656 Z M 8.875 0.722656 " clip-rule="nonzero"/></clipPath><clipPath id="94e77ce782"><rect x="0" width="18" y="0" height="18"/></clipPath><clipPath id="c46c503f7a"><path d="M 165.230469 152.722656 L 181.914062 152.722656 L 181.914062 169.40625 L 165.230469 169.40625 Z M 165.230469 152.722656 " clip-rule="nonzero"/></clipPath><clipPath id="d1eb6dcd82"><path d="M 173.570312 152.722656 C 168.964844 152.722656 165.230469 156.457031 165.230469 161.066406 C 165.230469 165.671875 168.964844 169.40625 173.570312 169.40625 C 178.179688 169.40625 181.914062 165.671875 181.914062 161.066406 C 181.914062 156.457031 178.179688 152.722656 173.570312 152.722656 Z M 173.570312 152.722656 " clip-rule="nonzero"/></clipPath><clipPath id="1b52394977"><path d="M 0.230469 0.722656 L 16.914062 0.722656 L 16.914062 17.40625 L 0.230469 17.40625 Z M 0.230469 0.722656 " clip-rule="nonzero"/></clipPath><clipPath id="89dfea0caa"><path d="M 8.570312 0.722656 C 3.964844 0.722656 0.230469 4.457031 0.230469 9.066406 C 0.230469 13.671875 3.964844 17.40625 8.570312 17.40625 C 13.179688 17.40625 16.914062 13.671875 16.914062 9.066406 C 16.914062 4.457031 13.179688 0.722656 8.570312 0.722656 Z M 8.570312 0.722656 " clip-rule="nonzero"/></clipPath><clipPath id="33c3b70094"><rect x="0" width="17" y="0" height="18"/></clipPath><clipPath id="aa7bf6afa1"><path d="M 120.140625 152.722656 L 136.828125 152.722656 L 136.828125 169.40625 L 120.140625 169.40625 Z M 120.140625 152.722656 " clip-rule="nonzero"/></clipPath><clipPath id="0790dfe0ad"><path d="M 128.484375 152.722656 C 123.875 152.722656 120.140625 156.457031 120.140625 161.066406 C 120.140625 165.671875 123.875 169.40625 128.484375 169.40625 C 133.089844 169.40625 136.828125 165.671875 136.828125 161.066406 C 136.828125 156.457031 133.089844 152.722656 128.484375 152.722656 Z M 128.484375 152.722656 " clip-rule="nonzero"/></clipPath><clipPath id="27dc372591"><path d="M 0.140625 0.722656 L 16.828125 0.722656 L 16.828125 17.40625 L 0.140625 17.40625 Z M 0.140625 0.722656 " clip-rule="nonzero"/></clipPath><clipPath id="2e8387a543"><path d="M 8.484375 0.722656 C 3.875 0.722656 0.140625 4.457031 0.140625 9.066406 C 0.140625 13.671875 3.875 17.40625 8.484375 17.40625 C 13.089844 17.40625 16.828125 13.671875 16.828125 9.066406 C 16.828125 4.457031 13.089844 0.722656 8.484375 0.722656 Z M 8.484375 0.722656 " clip-rule="nonzero"/></clipPath><clipPath id="6df3bea14e"><rect x="0" width="17" y="0" height="18"/></clipPath><clipPath id="4961e276d5"><rect x="0" width="185" y="0" height="17"/></clipPath></defs><path stroke-linecap="butt" transform="matrix(0.75, 0, 0, 0.75, 91.260438, 159.564789)" fill="none" stroke-linejoin="miter" d="M 3.001708 2.002157 L 241.835057 2.002157 " stroke="#000000" stroke-width="4" stroke-opacity="1" stroke-miterlimit="4"/><path stroke-linecap="round" transform="matrix(0.75, 0, 0, 0.75, 91.260438, 159.564789)" fill="none" stroke-linejoin="round" d="M 2.001708 -3.997844 L 2.001708 8.002157 " stroke="#000000" stroke-width="4" stroke-opacity="1" stroke-miterlimit="4"/><path stroke-linecap="round" transform="matrix(0.75, 0, 0, 0.75, 91.260438, 159.564789)" fill="none" stroke-linejoin="round" d="M 242.835057 -3.997844 L 242.835057 8.002157 " stroke="#000000" stroke-width="4" stroke-opacity="1" stroke-miterlimit="4"/><g clip-path="url(#e6693df52e)"><path stroke-linecap="butt" transform="matrix(0.0980649, 0, 0, 0.0980649, 256.057341, 142.237155)" fill-opacity="1" fill="#00d300" fill-rule="nonzero" stroke-linejoin="miter" d="M 191.212773 381.933491 C 85.893439 381.933491 0.490772 296.570657 0.490772 191.21149 C 0.490772 85.892156 85.893439 0.489488 191.212773 0.489488 C 296.571941 0.489488 381.934775 85.892156 381.934775 191.21149 C 381.934775 296.570657 296.571941 381.933491 191.212773 381.933491 Z M 191.212773 381.933491 " stroke="#3fb24f" stroke-width="1" stroke-opacity="1" stroke-miterlimit="10"/></g><path fill="#ffffff" d="M 269.820312 170.316406 L 263.894531 162.625 C 263.371094 161.941406 263.5 160.964844 264.179688 160.441406 L 264.820312 159.949219 C 265.5 159.421875 266.480469 159.550781 267.003906 160.230469 L 269.929688 164.03125 C 270.539062 164.824219 271.726562 164.84375 272.363281 164.074219 L 282.667969 151.617188 C 283.214844 150.957031 284.195312 150.863281 284.859375 151.410156 L 285.484375 151.925781 C 286.144531 152.476562 286.238281 153.457031 285.691406 154.121094 L 272.25 170.359375 C 271.613281 171.128906 270.429688 171.109375 269.820312 170.316406 Z M 269.820312 170.316406 " fill-opacity="1" fill-rule="nonzero"/><g clip-path="url(#76a6508e38)"><g clip-path="url(#a5a59feef1)"><g transform="matrix(1, 0, 0, 1, 210, 152)"><g clip-path="url(#94e77ce782)"><g clip-path="url(#9415431938)"><g clip-path="url(#dd2ef94b39)"><path fill="#508aff" d="M 0.53125 0.722656 L 17.214844 0.722656 L 17.214844 17.40625 L 0.53125 17.40625 Z M 0.53125 0.722656 " fill-opacity="1" fill-rule="nonzero"/></g></g></g></g></g></g><g clip-path="url(#c46c503f7a)"><g clip-path="url(#d1eb6dcd82)"><g transform="matrix(1, 0, 0, 1, 165, 152)"><g clip-path="url(#33c3b70094)"><g clip-path="url(#1b52394977)"><g clip-path="url(#89dfea0caa)"><path fill="#ffc200" d="M 0.230469 0.722656 L 16.914062 0.722656 L 16.914062 17.40625 L 0.230469 17.40625 Z M 0.230469 0.722656 " fill-opacity="1" fill-rule="nonzero"/></g></g></g></g></g></g><g clip-path="url(#aa7bf6afa1)"><g clip-path="url(#0790dfe0ad)"><g transform="matrix(1, 0, 0, 1, 120, 152)"><g clip-path="url(#6df3bea14e)"><g clip-path="url(#27dc372591)"><g clip-path="url(#2e8387a543)"><path fill="#fe1c00" d="M 0.140625 0.722656 L 16.828125 0.722656 L 16.828125 17.40625 L 0.140625 17.40625 Z M 0.140625 0.722656 " fill-opacity="1" fill-rule="nonzero"/></g></g></g></g></g></g><g fill="#333333" fill-opacity="1"><g transform="translate(85.354495, 207.765265)"><g><path d="M 3.09375 0 L 3.09375 -23.765625 L 13.234375 -23.765625 C 14.691406 -23.765625 15.925781 -23.535156 16.9375 -23.078125 C 17.957031 -22.617188 18.726562 -21.960938 19.25 -21.109375 C 19.769531 -20.253906 20.03125 -19.25 20.03125 -18.09375 C 20.03125 -17.039062 19.773438 -16.113281 19.265625 -15.3125 C 18.753906 -14.507812 18.023438 -13.863281 17.078125 -13.375 L 17.078125 -13.046875 C 18.566406 -12.648438 19.71875 -11.9375 20.53125 -10.90625 C 21.34375 -9.875 21.75 -8.613281 21.75 -7.125 C 21.75 -4.84375 21.0625 -3.082031 19.6875 -1.84375 C 18.320312 -0.613281 16.289062 0 13.59375 0 Z M 12.265625 -14.296875 C 14.453125 -14.296875 15.546875 -15.28125 15.546875 -17.25 C 15.546875 -18.257812 15.273438 -19.007812 14.734375 -19.5 C 14.191406 -19.988281 13.367188 -20.234375 12.265625 -20.234375 L 7.78125 -20.234375 L 7.78125 -14.296875 Z M 13.125 -3.71875 C 15.707031 -3.71875 17 -4.894531 17 -7.25 C 17 -9.613281 15.707031 -10.796875 13.125 -10.796875 L 7.78125 -10.796875 L 7.78125 -3.71875 Z M 13.125 -3.71875 "/></g></g></g><g fill="#333333" fill-opacity="1"><g transform="translate(108.592867, 207.765265)"><g><path d="M 6.984375 0.34375 C 5.835938 0.34375 4.84375 0.132812 4 -0.28125 C 3.15625 -0.707031 2.503906 -1.328125 2.046875 -2.140625 C 1.585938 -2.960938 1.359375 -3.953125 1.359375 -5.109375 C 1.359375 -6.171875 1.585938 -7.0625 2.046875 -7.78125 C 2.503906 -8.5 3.207031 -9.085938 4.15625 -9.546875 C 5.113281 -10.015625 6.363281 -10.367188 7.90625 -10.609375 C 8.976562 -10.785156 9.789062 -10.976562 10.34375 -11.1875 C 10.90625 -11.394531 11.28125 -11.628906 11.46875 -11.890625 C 11.664062 -12.148438 11.765625 -12.476562 11.765625 -12.875 C 11.765625 -13.445312 11.5625 -13.882812 11.15625 -14.1875 C 10.757812 -14.5 10.097656 -14.65625 9.171875 -14.65625 C 8.171875 -14.65625 7.21875 -14.429688 6.3125 -13.984375 C 5.414062 -13.535156 4.640625 -12.945312 3.984375 -12.21875 L 3.65625 -12.21875 L 1.765625 -15.078125 C 2.679688 -16.078125 3.796875 -16.859375 5.109375 -17.421875 C 6.421875 -17.992188 7.847656 -18.28125 9.390625 -18.28125 C 11.765625 -18.28125 13.484375 -17.773438 14.546875 -16.765625 C 15.609375 -15.753906 16.140625 -14.320312 16.140625 -12.46875 L 16.140625 -4.6875 C 16.140625 -3.882812 16.492188 -3.484375 17.203125 -3.484375 C 17.472656 -3.484375 17.738281 -3.53125 18 -3.625 L 18.21875 -3.5625 L 18.546875 -0.421875 C 18.296875 -0.253906 17.945312 -0.117188 17.5 -0.015625 C 17.0625 0.078125 16.578125 0.125 16.046875 0.125 C 14.972656 0.125 14.132812 -0.078125 13.53125 -0.484375 C 12.925781 -0.898438 12.5 -1.546875 12.25 -2.421875 L 11.90625 -2.453125 C 11.019531 -0.585938 9.378906 0.34375 6.984375 0.34375 Z M 8.421875 -3.03125 C 9.460938 -3.03125 10.296875 -3.378906 10.921875 -4.078125 C 11.546875 -4.773438 11.859375 -5.742188 11.859375 -6.984375 L 11.859375 -8.8125 L 11.546875 -8.875 C 11.273438 -8.65625 10.914062 -8.472656 10.46875 -8.328125 C 10.03125 -8.179688 9.398438 -8.039062 8.578125 -7.90625 C 7.609375 -7.738281 6.910156 -7.457031 6.484375 -7.0625 C 6.054688 -6.664062 5.84375 -6.101562 5.84375 -5.375 C 5.84375 -4.613281 6.066406 -4.03125 6.515625 -3.625 C 6.972656 -3.226562 7.609375 -3.03125 8.421875 -3.03125 Z M 8.421875 -3.03125 "/></g></g></g><g fill="#333333" fill-opacity="1"><g transform="translate(127.492325, 207.765265)"><g><path d="M 8.390625 0.34375 C 7.160156 0.34375 6.035156 0.203125 5.015625 -0.078125 C 4.003906 -0.367188 3.132812 -0.765625 2.40625 -1.265625 C 1.6875 -1.773438 1.15625 -2.351562 0.8125 -3 L 3.3125 -5.703125 L 3.65625 -5.703125 C 4.25 -4.898438 4.953125 -4.296875 5.765625 -3.890625 C 6.578125 -3.492188 7.460938 -3.296875 8.421875 -3.296875 C 9.296875 -3.296875 9.957031 -3.453125 10.40625 -3.765625 C 10.851562 -4.085938 11.078125 -4.539062 11.078125 -5.125 C 11.078125 -5.570312 10.914062 -5.953125 10.59375 -6.265625 C 10.269531 -6.578125 9.753906 -6.816406 9.046875 -6.984375 L 6.671875 -7.5625 C 4.890625 -7.976562 3.585938 -8.625 2.765625 -9.5 C 1.953125 -10.375 1.546875 -11.484375 1.546875 -12.828125 C 1.546875 -13.941406 1.828125 -14.910156 2.390625 -15.734375 C 2.960938 -16.554688 3.765625 -17.1875 4.796875 -17.625 C 5.835938 -18.0625 7.046875 -18.28125 8.421875 -18.28125 C 10.035156 -18.28125 11.375 -18.046875 12.4375 -17.578125 C 13.5 -17.109375 14.328125 -16.484375 14.921875 -15.703125 L 12.515625 -13.109375 L 12.1875 -13.109375 C 11.695312 -13.671875 11.140625 -14.082031 10.515625 -14.34375 C 9.890625 -14.601562 9.191406 -14.734375 8.421875 -14.734375 C 6.640625 -14.734375 5.75 -14.179688 5.75 -13.078125 C 5.75 -12.609375 5.914062 -12.226562 6.25 -11.9375 C 6.582031 -11.644531 7.164062 -11.40625 8 -11.21875 L 10.203125 -10.734375 C 12.023438 -10.335938 13.359375 -9.707031 14.203125 -8.84375 C 15.046875 -7.988281 15.46875 -6.832031 15.46875 -5.375 C 15.46875 -4.238281 15.179688 -3.238281 14.609375 -2.375 C 14.046875 -1.507812 13.234375 -0.835938 12.171875 -0.359375 C 11.109375 0.109375 9.847656 0.34375 8.390625 0.34375 Z M 8.390625 0.34375 "/></g></g></g><g fill="#333333" fill-opacity="1"><g transform="translate(144.019195, 207.765265)"><g><path d="M 17.71875 -7.953125 L 6.1875 -7.953125 C 6.320312 -6.390625 6.769531 -5.253906 7.53125 -4.546875 C 8.289062 -3.835938 9.328125 -3.484375 10.640625 -3.484375 C 11.660156 -3.484375 12.488281 -3.675781 13.125 -4.0625 C 13.769531 -4.445312 14.289062 -5.023438 14.6875 -5.796875 L 15.015625 -5.796875 L 18.015625 -3.890625 C 17.429688 -2.628906 16.546875 -1.609375 15.359375 -0.828125 C 14.179688 -0.046875 12.609375 0.34375 10.640625 0.34375 C 8.785156 0.34375 7.179688 -0.00390625 5.828125 -0.703125 C 4.472656 -1.410156 3.429688 -2.460938 2.703125 -3.859375 C 1.972656 -5.253906 1.609375 -6.953125 1.609375 -8.953125 C 1.609375 -10.992188 1.992188 -12.710938 2.765625 -14.109375 C 3.535156 -15.503906 4.578125 -16.546875 5.890625 -17.234375 C 7.203125 -17.929688 8.675781 -18.28125 10.3125 -18.28125 C 12.84375 -18.28125 14.78125 -17.609375 16.125 -16.265625 C 17.476562 -14.921875 18.15625 -12.945312 18.15625 -10.34375 C 18.15625 -9.394531 18.125 -8.660156 18.0625 -8.140625 Z M 13.859375 -10.859375 C 13.804688 -12.222656 13.484375 -13.21875 12.890625 -13.84375 C 12.304688 -14.46875 11.445312 -14.78125 10.3125 -14.78125 C 8.03125 -14.78125 6.691406 -13.472656 6.296875 -10.859375 Z M 13.859375 -10.859375 "/></g></g></g><g fill="#333333" fill-opacity="1"><g transform="translate(163.503676, 207.765265)"><g><path d="M 7.78125 -23.765625 L 7.78125 -3.9375 L 18.46875 -3.9375 L 18.46875 0 L 3.09375 0 L 3.09375 -23.765625 Z M 7.78125 -23.765625 "/></g></g></g><g fill="#333333" fill-opacity="1"><g transform="translate(182.744397, 207.765265)"><g><path d="M 4.828125 -20.078125 C 4.015625 -20.078125 3.351562 -20.320312 2.84375 -20.8125 C 2.332031 -21.3125 2.078125 -21.953125 2.078125 -22.734375 C 2.078125 -23.503906 2.332031 -24.132812 2.84375 -24.625 C 3.351562 -25.113281 4.015625 -25.359375 4.828125 -25.359375 C 5.367188 -25.359375 5.847656 -25.242188 6.265625 -25.015625 C 6.691406 -24.796875 7.019531 -24.488281 7.25 -24.09375 C 7.488281 -23.695312 7.609375 -23.242188 7.609375 -22.734375 C 7.609375 -22.222656 7.488281 -21.765625 7.25 -21.359375 C 7.019531 -20.960938 6.691406 -20.648438 6.265625 -20.421875 C 5.847656 -20.191406 5.367188 -20.078125 4.828125 -20.078125 Z M 2.578125 0 L 2.578125 -17.9375 L 7.09375 -17.9375 L 7.09375 0 Z M 2.578125 0 "/></g></g></g><g fill="#333333" fill-opacity="1"><g transform="translate(192.397259, 207.765265)"><g><path d="M 2.578125 0 L 2.578125 -17.9375 L 6.90625 -17.9375 L 6.90625 -15.296875 L 7.25 -15.21875 C 8.363281 -17.257812 10.175781 -18.28125 12.6875 -18.28125 C 14.75 -18.28125 16.265625 -17.710938 17.234375 -16.578125 C 18.210938 -15.453125 18.703125 -13.8125 18.703125 -11.65625 L 18.703125 0 L 14.1875 0 L 14.1875 -11.109375 C 14.1875 -12.296875 13.945312 -13.148438 13.46875 -13.671875 C 13 -14.203125 12.238281 -14.46875 11.1875 -14.46875 C 9.894531 -14.46875 8.890625 -14.050781 8.171875 -13.21875 C 7.453125 -12.382812 7.09375 -11.070312 7.09375 -9.28125 L 7.09375 0 Z M 2.578125 0 "/></g></g></g><g fill="#333333" fill-opacity="1"><g transform="translate(213.393046, 207.765265)"><g><path d="M 17.71875 -7.953125 L 6.1875 -7.953125 C 6.320312 -6.390625 6.769531 -5.253906 7.53125 -4.546875 C 8.289062 -3.835938 9.328125 -3.484375 10.640625 -3.484375 C 11.660156 -3.484375 12.488281 -3.675781 13.125 -4.0625 C 13.769531 -4.445312 14.289062 -5.023438 14.6875 -5.796875 L 15.015625 -5.796875 L 18.015625 -3.890625 C 17.429688 -2.628906 16.546875 -1.609375 15.359375 -0.828125 C 14.179688 -0.046875 12.609375 0.34375 10.640625 0.34375 C 8.785156 0.34375 7.179688 -0.00390625 5.828125 -0.703125 C 4.472656 -1.410156 3.429688 -2.460938 2.703125 -3.859375 C 1.972656 -5.253906 1.609375 -6.953125 1.609375 -8.953125 C 1.609375 -10.992188 1.992188 -12.710938 2.765625 -14.109375 C 3.535156 -15.503906 4.578125 -16.546875 5.890625 -17.234375 C 7.203125 -17.929688 8.675781 -18.28125 10.3125 -18.28125 C 12.84375 -18.28125 14.78125 -17.609375 16.125 -16.265625 C 17.476562 -14.921875 18.15625 -12.945312 18.15625 -10.34375 C 18.15625 -9.394531 18.125 -8.660156 18.0625 -8.140625 Z M 13.859375 -10.859375 C 13.804688 -12.222656 13.484375 -13.21875 12.890625 -13.84375 C 12.304688 -14.46875 11.445312 -14.78125 10.3125 -14.78125 C 8.03125 -14.78125 6.691406 -13.472656 6.296875 -10.859375 Z M 13.859375 -10.859375 "/></g></g></g><g fill="#333333" fill-opacity="1"><g transform="translate(232.877527, 207.765265)"><g><path d="M 6.984375 0.34375 C 5.835938 0.34375 4.84375 0.132812 4 -0.28125 C 3.15625 -0.707031 2.503906 -1.328125 2.046875 -2.140625 C 1.585938 -2.960938 1.359375 -3.953125 1.359375 -5.109375 C 1.359375 -6.171875 1.585938 -7.0625 2.046875 -7.78125 C 2.503906 -8.5 3.207031 -9.085938 4.15625 -9.546875 C 5.113281 -10.015625 6.363281 -10.367188 7.90625 -10.609375 C 8.976562 -10.785156 9.789062 -10.976562 10.34375 -11.1875 C 10.90625 -11.394531 11.28125 -11.628906 11.46875 -11.890625 C 11.664062 -12.148438 11.765625 -12.476562 11.765625 -12.875 C 11.765625 -13.445312 11.5625 -13.882812 11.15625 -14.1875 C 10.757812 -14.5 10.097656 -14.65625 9.171875 -14.65625 C 8.171875 -14.65625 7.21875 -14.429688 6.3125 -13.984375 C 5.414062 -13.535156 4.640625 -12.945312 3.984375 -12.21875 L 3.65625 -12.21875 L 1.765625 -15.078125 C 2.679688 -16.078125 3.796875 -16.859375 5.109375 -17.421875 C 6.421875 -17.992188 7.847656 -18.28125 9.390625 -18.28125 C 11.765625 -18.28125 13.484375 -17.773438 14.546875 -16.765625 C 15.609375 -15.753906 16.140625 -14.320312 16.140625 -12.46875 L 16.140625 -4.6875 C 16.140625 -3.882812 16.492188 -3.484375 17.203125 -3.484375 C 17.472656 -3.484375 17.738281 -3.53125 18 -3.625 L 18.21875 -3.5625 L 18.546875 -0.421875 C 18.296875 -0.253906 17.945312 -0.117188 17.5 -0.015625 C 17.0625 0.078125 16.578125 0.125 16.046875 0.125 C 14.972656 0.125 14.132812 -0.078125 13.53125 -0.484375 C 12.925781 -0.898438 12.5 -1.546875 12.25 -2.421875 L 11.90625 -2.453125 C 11.019531 -0.585938 9.378906 0.34375 6.984375 0.34375 Z M 8.421875 -3.03125 C 9.460938 -3.03125 10.296875 -3.378906 10.921875 -4.078125 C 11.546875 -4.773438 11.859375 -5.742188 11.859375 -6.984375 L 11.859375 -8.8125 L 11.546875 -8.875 C 11.273438 -8.65625 10.914062 -8.472656 10.46875 -8.328125 C 10.03125 -8.179688 9.398438 -8.039062 8.578125 -7.90625 C 7.609375 -7.738281 6.910156 -7.457031 6.484375 -7.0625 C 6.054688 -6.664062 5.84375 -6.101562 5.84375 -5.375 C 5.84375 -4.613281 6.066406 -4.03125 6.515625 -3.625 C 6.972656 -3.226562 7.609375 -3.03125 8.421875 -3.03125 Z M 8.421875 -3.03125 "/></g></g></g><g fill="#333333" fill-opacity="1"><g transform="translate(251.776986, 207.765265)"><g><path d="M 9.296875 7.609375 C 6.335938 7.609375 4.15625 7.171875 2.75 6.296875 C 1.34375 5.429688 0.640625 4.226562 0.640625 2.6875 C 0.640625 1.738281 0.9375 0.960938 1.53125 0.359375 C 2.132812 -0.234375 3 -0.632812 4.125 -0.84375 L 4.125 -1.1875 C 3.519531 -1.550781 3.082031 -1.957031 2.8125 -2.40625 C 2.550781 -2.863281 2.421875 -3.390625 2.421875 -3.984375 C 2.421875 -5.421875 3.359375 -6.390625 5.234375 -6.890625 L 5.234375 -7.234375 C 4.265625 -7.785156 3.535156 -8.46875 3.046875 -9.28125 C 2.566406 -10.101562 2.328125 -11.097656 2.328125 -12.265625 C 2.328125 -13.453125 2.597656 -14.5 3.140625 -15.40625 C 3.691406 -16.3125 4.492188 -17.015625 5.546875 -17.515625 C 6.609375 -18.023438 7.875 -18.28125 9.34375 -18.28125 C 10.84375 -18.28125 12.035156 -18.019531 12.921875 -17.5 C 13.472656 -18.300781 13.796875 -19.226562 13.890625 -20.28125 L 14.21875 -20.484375 L 17.46875 -19.6875 C 17.363281 -18.832031 17.109375 -18.113281 16.703125 -17.53125 C 16.304688 -16.957031 15.6875 -16.441406 14.84375 -15.984375 L 14.84375 -15.625 C 15.851562 -14.738281 16.359375 -13.5 16.359375 -11.90625 C 16.359375 -10.800781 16.082031 -9.804688 15.53125 -8.921875 C 14.976562 -8.046875 14.171875 -7.351562 13.109375 -6.84375 C 12.054688 -6.332031 10.800781 -6.078125 9.34375 -6.078125 L 8.671875 -6.09375 C 8.234375 -6.113281 7.925781 -6.125 7.75 -6.125 C 7.34375 -6.125 7.019531 -6.015625 6.78125 -5.796875 C 6.550781 -5.578125 6.4375 -5.289062 6.4375 -4.9375 C 6.4375 -4.5625 6.585938 -4.265625 6.890625 -4.046875 C 7.191406 -3.835938 7.640625 -3.722656 8.234375 -3.703125 L 12.25 -3.5625 C 16.207031 -3.4375 18.1875 -1.726562 18.1875 1.5625 C 18.1875 2.71875 17.890625 3.75 17.296875 4.65625 C 16.710938 5.5625 15.757812 6.28125 14.4375 6.8125 C 13.113281 7.34375 11.398438 7.609375 9.296875 7.609375 Z M 9.34375 -9.234375 C 10.21875 -9.234375 10.894531 -9.488281 11.375 -10 C 11.863281 -10.507812 12.109375 -11.234375 12.109375 -12.171875 C 12.109375 -13.117188 11.863281 -13.84375 11.375 -14.34375 C 10.894531 -14.851562 10.21875 -15.109375 9.34375 -15.109375 C 8.46875 -15.109375 7.789062 -14.851562 7.3125 -14.34375 C 6.832031 -13.84375 6.59375 -13.117188 6.59375 -12.171875 C 6.59375 -11.222656 6.832031 -10.492188 7.3125 -9.984375 C 7.789062 -9.484375 8.46875 -9.234375 9.34375 -9.234375 Z M 9.296875 4.34375 C 10.835938 4.34375 11.957031 4.125 12.65625 3.6875 C 13.351562 3.257812 13.703125 2.695312 13.703125 2 C 13.703125 1.4375 13.519531 1.019531 13.15625 0.75 C 12.800781 0.488281 12.238281 0.347656 11.46875 0.328125 L 7.921875 0.15625 C 7.796875 0.15625 7.679688 0.148438 7.578125 0.140625 C 7.484375 0.128906 7.382812 0.125 7.28125 0.125 C 6.519531 0.125 5.941406 0.285156 5.546875 0.609375 C 5.148438 0.941406 4.953125 1.394531 4.953125 1.96875 C 4.953125 2.726562 5.316406 3.3125 6.046875 3.71875 C 6.773438 4.132812 7.859375 4.34375 9.296875 4.34375 Z M 9.296875 4.34375 "/></g></g></g><g fill="#333333" fill-opacity="1"><g transform="translate(270.140083, 207.765265)"><g><path d="M 17.71875 -7.953125 L 6.1875 -7.953125 C 6.320312 -6.390625 6.769531 -5.253906 7.53125 -4.546875 C 8.289062 -3.835938 9.328125 -3.484375 10.640625 -3.484375 C 11.660156 -3.484375 12.488281 -3.675781 13.125 -4.0625 C 13.769531 -4.445312 14.289062 -5.023438 14.6875 -5.796875 L 15.015625 -5.796875 L 18.015625 -3.890625 C 17.429688 -2.628906 16.546875 -1.609375 15.359375 -0.828125 C 14.179688 -0.046875 12.609375 0.34375 10.640625 0.34375 C 8.785156 0.34375 7.179688 -0.00390625 5.828125 -0.703125 C 4.472656 -1.410156 3.429688 -2.460938 2.703125 -3.859375 C 1.972656 -5.253906 1.609375 -6.953125 1.609375 -8.953125 C 1.609375 -10.992188 1.992188 -12.710938 2.765625 -14.109375 C 3.535156 -15.503906 4.578125 -16.546875 5.890625 -17.234375 C 7.203125 -17.929688 8.675781 -18.28125 10.3125 -18.28125 C 12.84375 -18.28125 14.78125 -17.609375 16.125 -16.265625 C 17.476562 -14.921875 18.15625 -12.945312 18.15625 -10.34375 C 18.15625 -9.394531 18.125 -8.660156 18.0625 -8.140625 Z M 13.859375 -10.859375 C 13.804688 -12.222656 13.484375 -13.21875 12.890625 -13.84375 C 12.304688 -14.46875 11.445312 -14.78125 10.3125 -14.78125 C 8.03125 -14.78125 6.691406 -13.472656 6.296875 -10.859375 Z M 13.859375 -10.859375 "/></g></g></g><g transform="matrix(1, 0, 0, 1, 96, 222)"><g clip-path="url(#4961e276d5)"><g fill="#000000" fill-opacity="1"><g transform="translate(0.179005, 11.896354)"><g><path d="M 3.71875 -7.921875 C 4.09375 -7.921875 4.410156 -7.890625 4.671875 -7.828125 C 4.941406 -7.773438 5.171875 -7.710938 5.359375 -7.640625 C 5.546875 -7.566406 5.695312 -7.5 5.8125 -7.4375 C 5.9375 -7.382812 6.039062 -7.359375 6.125 -7.359375 C 6.164062 -7.359375 6.195312 -7.363281 6.21875 -7.375 C 6.25 -7.394531 6.273438 -7.414062 6.296875 -7.4375 L 6.4375 -7.34375 L 5.671875 -5.9375 L 5.53125 -6.015625 C 5.53125 -6.335938 5.359375 -6.582031 5.015625 -6.75 C 4.679688 -6.914062 4.257812 -7 3.75 -7 C 3.507812 -7 3.28125 -6.96875 3.0625 -6.90625 C 2.84375 -6.851562 2.648438 -6.773438 2.484375 -6.671875 C 2.328125 -6.566406 2.203125 -6.4375 2.109375 -6.28125 C 2.015625 -6.125 1.96875 -5.941406 1.96875 -5.734375 C 1.96875 -5.453125 2.097656 -5.238281 2.359375 -5.09375 C 2.628906 -4.945312 3.019531 -4.804688 3.53125 -4.671875 C 3.945312 -4.578125 4.335938 -4.472656 4.703125 -4.359375 C 5.078125 -4.242188 5.40625 -4.09375 5.6875 -3.90625 C 5.96875 -3.726562 6.1875 -3.503906 6.34375 -3.234375 C 6.507812 -2.972656 6.59375 -2.644531 6.59375 -2.25 C 6.59375 -1.507812 6.332031 -0.929688 5.8125 -0.515625 C 5.289062 -0.109375 4.578125 0.09375 3.671875 0.09375 C 3.304688 0.09375 2.945312 0.046875 2.59375 -0.046875 C 2.238281 -0.140625 1.898438 -0.269531 1.578125 -0.4375 C 1.484375 -0.46875 1.414062 -0.492188 1.375 -0.515625 C 1.332031 -0.546875 1.28125 -0.5625 1.21875 -0.5625 C 1.113281 -0.5625 1.023438 -0.515625 0.953125 -0.421875 L 0.78125 -0.46875 L 1.71875 -2.15625 L 1.859375 -2.09375 C 1.859375 -1.675781 2.023438 -1.359375 2.359375 -1.140625 C 2.703125 -0.929688 3.171875 -0.828125 3.765625 -0.828125 C 3.984375 -0.828125 4.203125 -0.851562 4.421875 -0.90625 C 4.640625 -0.96875 4.835938 -1.050781 5.015625 -1.15625 C 5.191406 -1.269531 5.332031 -1.410156 5.4375 -1.578125 C 5.550781 -1.742188 5.609375 -1.941406 5.609375 -2.171875 C 5.609375 -2.378906 5.554688 -2.554688 5.453125 -2.703125 C 5.347656 -2.859375 5.203125 -2.992188 5.015625 -3.109375 C 4.835938 -3.222656 4.613281 -3.316406 4.34375 -3.390625 C 4.082031 -3.472656 3.796875 -3.554688 3.484375 -3.640625 C 3.148438 -3.722656 2.828125 -3.8125 2.515625 -3.90625 C 2.210938 -4.007812 1.945312 -4.140625 1.71875 -4.296875 C 1.5 -4.460938 1.320312 -4.660156 1.1875 -4.890625 C 1.050781 -5.117188 0.984375 -5.394531 0.984375 -5.71875 C 0.984375 -6.414062 1.234375 -6.957031 1.734375 -7.34375 C 2.234375 -7.726562 2.894531 -7.921875 3.71875 -7.921875 Z M 3.71875 -7.921875 "/></g></g></g><g fill="#000000" fill-opacity="1"><g transform="translate(8.635118, 11.896354)"><g><path d="M 5.703125 -5.484375 L 5.53125 -5.484375 C 5.507812 -5.617188 5.460938 -5.710938 5.390625 -5.765625 C 5.316406 -5.816406 5.222656 -5.84375 5.109375 -5.84375 L 2.375 -5.84375 L 2.375 -3.6875 L 4.140625 -3.6875 C 4.265625 -3.6875 4.359375 -3.710938 4.421875 -3.765625 C 4.492188 -3.828125 4.539062 -3.929688 4.5625 -4.078125 L 4.734375 -4.078125 L 4.734375 -2.625 L 4.5625 -2.625 C 4.539062 -2.757812 4.492188 -2.851562 4.421875 -2.90625 C 4.347656 -2.957031 4.257812 -2.984375 4.15625 -2.984375 L 2.375 -2.984375 L 2.375 -0.71875 L 5.234375 -0.71875 C 5.359375 -0.71875 5.453125 -0.738281 5.515625 -0.78125 C 5.585938 -0.832031 5.632812 -0.941406 5.65625 -1.109375 L 5.84375 -1.109375 L 5.84375 0.265625 L 5.65625 0.265625 C 5.632812 0.160156 5.582031 0.0859375 5.5 0.046875 C 5.414062 0.015625 5.273438 0 5.078125 0 L 1.1875 0 L 1.1875 -0.171875 C 1.300781 -0.191406 1.375 -0.242188 1.40625 -0.328125 C 1.4375 -0.421875 1.453125 -0.550781 1.453125 -0.71875 L 1.453125 -5.84375 C 1.453125 -6.039062 1.429688 -6.171875 1.390625 -6.234375 C 1.359375 -6.304688 1.289062 -6.351562 1.1875 -6.375 L 1.1875 -6.546875 L 5.0625 -6.546875 C 5.175781 -6.546875 5.273438 -6.5625 5.359375 -6.59375 C 5.453125 -6.632812 5.507812 -6.707031 5.53125 -6.8125 L 5.703125 -6.8125 Z M 5.703125 -5.484375 "/></g></g></g><g fill="#000000" fill-opacity="1"><g transform="translate(16.257552, 11.896354)"><g><path d="M 5.703125 -5.484375 L 5.53125 -5.484375 C 5.507812 -5.617188 5.460938 -5.710938 5.390625 -5.765625 C 5.316406 -5.816406 5.222656 -5.84375 5.109375 -5.84375 L 2.375 -5.84375 L 2.375 -3.6875 L 4.140625 -3.6875 C 4.265625 -3.6875 4.359375 -3.710938 4.421875 -3.765625 C 4.492188 -3.828125 4.539062 -3.929688 4.5625 -4.078125 L 4.734375 -4.078125 L 4.734375 -2.625 L 4.5625 -2.625 C 4.539062 -2.757812 4.492188 -2.851562 4.421875 -2.90625 C 4.347656 -2.957031 4.257812 -2.984375 4.15625 -2.984375 L 2.375 -2.984375 L 2.375 -0.71875 L 5.234375 -0.71875 C 5.359375 -0.71875 5.453125 -0.738281 5.515625 -0.78125 C 5.585938 -0.832031 5.632812 -0.941406 5.65625 -1.109375 L 5.84375 -1.109375 L 5.84375 0.265625 L 5.65625 0.265625 C 5.632812 0.160156 5.582031 0.0859375 5.5 0.046875 C 5.414062 0.015625 5.273438 0 5.078125 0 L 1.1875 0 L 1.1875 -0.171875 C 1.300781 -0.191406 1.375 -0.242188 1.40625 -0.328125 C 1.4375 -0.421875 1.453125 -0.550781 1.453125 -0.71875 L 1.453125 -5.84375 C 1.453125 -6.039062 1.429688 -6.171875 1.390625 -6.234375 C 1.359375 -6.304688 1.289062 -6.351562 1.1875 -6.375 L 1.1875 -6.546875 L 5.0625 -6.546875 C 5.175781 -6.546875 5.273438 -6.5625 5.359375 -6.59375 C 5.453125 -6.632812 5.507812 -6.707031 5.53125 -6.8125 L 5.703125 -6.8125 Z M 5.703125 -5.484375 "/></g></g></g><g fill="#000000" fill-opacity="1"><g transform="translate(23.879987, 11.896354)"><g/></g></g><g fill="#000000" fill-opacity="1"><g transform="translate(28.614321, 11.896354)"><g><path d="M 1.9375 -6.546875 L 1.9375 -6.375 C 1.75 -6.363281 1.65625 -6.296875 1.65625 -6.171875 C 1.65625 -6.078125 1.679688 -5.945312 1.734375 -5.78125 L 2.859375 -1.546875 L 2.890625 -1.546875 L 3.84375 -5.71875 C 3.863281 -5.820312 3.875 -5.898438 3.875 -5.953125 C 3.882812 -6.015625 3.890625 -6.070312 3.890625 -6.125 C 3.890625 -6.164062 3.875 -6.210938 3.84375 -6.265625 C 3.8125 -6.316406 3.75 -6.351562 3.65625 -6.375 L 3.65625 -6.546875 L 5.28125 -6.546875 L 5.28125 -6.375 C 5.125 -6.363281 5.046875 -6.285156 5.046875 -6.140625 C 5.046875 -6.066406 5.070312 -5.929688 5.125 -5.734375 L 6.1875 -1.546875 L 6.21875 -1.546875 L 7.1875 -5.671875 C 7.21875 -5.804688 7.238281 -5.910156 7.25 -5.984375 C 7.257812 -6.066406 7.265625 -6.128906 7.265625 -6.171875 C 7.265625 -6.304688 7.175781 -6.375 7 -6.375 L 7 -6.546875 L 8.484375 -6.546875 L 8.484375 -6.375 C 8.242188 -6.375 8.09375 -6.222656 8.03125 -5.921875 L 6.859375 -0.875 C 6.835938 -0.78125 6.816406 -0.695312 6.796875 -0.625 C 6.785156 -0.550781 6.78125 -0.492188 6.78125 -0.453125 C 6.78125 -0.304688 6.832031 -0.210938 6.9375 -0.171875 L 6.9375 0 L 5.484375 0 L 5.484375 -0.171875 C 5.523438 -0.171875 5.566406 -0.1875 5.609375 -0.21875 C 5.648438 -0.257812 5.671875 -0.304688 5.671875 -0.359375 C 5.671875 -0.429688 5.65625 -0.515625 5.625 -0.609375 C 5.601562 -0.703125 5.578125 -0.820312 5.546875 -0.96875 L 4.453125 -5.15625 L 4.421875 -5.15625 L 3.484375 -0.921875 C 3.460938 -0.816406 3.4375 -0.710938 3.40625 -0.609375 C 3.382812 -0.515625 3.375 -0.441406 3.375 -0.390625 C 3.375 -0.273438 3.441406 -0.203125 3.578125 -0.171875 L 3.578125 0 L 2.109375 0 L 2.109375 -0.140625 C 2.222656 -0.160156 2.28125 -0.222656 2.28125 -0.328125 C 2.28125 -0.398438 2.265625 -0.492188 2.234375 -0.609375 C 2.203125 -0.734375 2.175781 -0.820312 2.15625 -0.875 L 0.859375 -5.8125 C 0.816406 -5.976562 0.769531 -6.109375 0.71875 -6.203125 C 0.664062 -6.296875 0.566406 -6.351562 0.421875 -6.375 L 0.421875 -6.546875 Z M 1.9375 -6.546875 "/></g></g></g><g fill="#000000" fill-opacity="1"><g transform="translate(38.722901, 11.896354)"><g><path d="M 2.453125 -6.546875 L 2.453125 -6.375 C 2.347656 -6.351562 2.273438 -6.300781 2.234375 -6.21875 C 2.203125 -6.144531 2.1875 -6.023438 2.1875 -5.859375 L 2.1875 -3.6875 L 5.25 -3.6875 L 5.25 -5.859375 C 5.25 -6.023438 5.234375 -6.144531 5.203125 -6.21875 C 5.171875 -6.300781 5.097656 -6.351562 4.984375 -6.375 L 4.984375 -6.546875 L 6.453125 -6.546875 L 6.453125 -6.375 C 6.335938 -6.351562 6.257812 -6.300781 6.21875 -6.21875 C 6.1875 -6.144531 6.171875 -6.023438 6.171875 -5.859375 L 6.171875 -0.703125 C 6.171875 -0.535156 6.1875 -0.410156 6.21875 -0.328125 C 6.257812 -0.242188 6.335938 -0.191406 6.453125 -0.171875 L 6.453125 0 L 4.984375 0 L 4.984375 -0.171875 C 5.097656 -0.191406 5.171875 -0.242188 5.203125 -0.328125 C 5.234375 -0.410156 5.25 -0.535156 5.25 -0.703125 L 5.25 -2.984375 L 2.1875 -2.984375 L 2.1875 -0.703125 C 2.1875 -0.535156 2.203125 -0.410156 2.234375 -0.328125 C 2.273438 -0.242188 2.347656 -0.191406 2.453125 -0.171875 L 2.453125 0 L 1 0 L 1 -0.171875 C 1.101562 -0.191406 1.171875 -0.242188 1.203125 -0.328125 C 1.242188 -0.410156 1.265625 -0.535156 1.265625 -0.703125 L 1.265625 -5.859375 C 1.265625 -6.023438 1.242188 -6.144531 1.203125 -6.21875 C 1.171875 -6.300781 1.101562 -6.351562 1 -6.375 L 1 -6.546875 Z M 2.453125 -6.546875 "/></g></g></g><g fill="#000000" fill-opacity="1"><g transform="translate(47.179014, 11.896354)"><g><path d="M 5.703125 -5.484375 L 5.53125 -5.484375 C 5.507812 -5.617188 5.460938 -5.710938 5.390625 -5.765625 C 5.316406 -5.816406 5.222656 -5.84375 5.109375 -5.84375 L 2.375 -5.84375 L 2.375 -3.6875 L 4.140625 -3.6875 C 4.265625 -3.6875 4.359375 -3.710938 4.421875 -3.765625 C 4.492188 -3.828125 4.539062 -3.929688 4.5625 -4.078125 L 4.734375 -4.078125 L 4.734375 -2.625 L 4.5625 -2.625 C 4.539062 -2.757812 4.492188 -2.851562 4.421875 -2.90625 C 4.347656 -2.957031 4.257812 -2.984375 4.15625 -2.984375 L 2.375 -2.984375 L 2.375 -0.71875 L 5.234375 -0.71875 C 5.359375 -0.71875 5.453125 -0.738281 5.515625 -0.78125 C 5.585938 -0.832031 5.632812 -0.941406 5.65625 -1.109375 L 5.84375 -1.109375 L 5.84375 0.265625 L 5.65625 0.265625 C 5.632812 0.160156 5.582031 0.0859375 5.5 0.046875 C 5.414062 0.015625 5.273438 0 5.078125 0 L 1.1875 0 L 1.1875 -0.171875 C 1.300781 -0.191406 1.375 -0.242188 1.40625 -0.328125 C 1.4375 -0.421875 1.453125 -0.550781 1.453125 -0.71875 L 1.453125 -5.84375 C 1.453125 -6.039062 1.429688 -6.171875 1.390625 -6.234375 C 1.359375 -6.304688 1.289062 -6.351562 1.1875 -6.375 L 1.1875 -6.546875 L 5.0625 -6.546875 C 5.175781 -6.546875 5.273438 -6.5625 5.359375 -6.59375 C 5.453125 -6.632812 5.507812 -6.707031 5.53125 -6.8125 L 5.703125 -6.8125 Z M 5.703125 -5.484375 "/></g></g></g><g fill="#000000" fill-opacity="1"><g transform="translate(54.801448, 11.896354)"><g><path d="M 2.84375 -6.546875 L 2.84375 -6.375 C 2.6875 -6.351562 2.609375 -6.285156 2.609375 -6.171875 C 2.609375 -6.109375 2.632812 -6.039062 2.6875 -5.96875 L 5.265625 -1.75 L 5.296875 -1.75 L 5.296875 -5.828125 C 5.296875 -5.992188 5.28125 -6.117188 5.25 -6.203125 C 5.21875 -6.296875 5.140625 -6.351562 5.015625 -6.375 L 5.015625 -6.546875 L 6.40625 -6.546875 L 6.40625 -6.375 C 6.289062 -6.351562 6.21875 -6.300781 6.1875 -6.21875 C 6.15625 -6.132812 6.140625 -6.007812 6.140625 -5.84375 L 6.140625 -0.734375 C 6.140625 -0.535156 6.160156 -0.394531 6.203125 -0.3125 C 6.242188 -0.238281 6.320312 -0.191406 6.4375 -0.171875 L 6.4375 0 L 4.984375 0 L 4.984375 -0.171875 C 5.035156 -0.171875 5.082031 -0.175781 5.125 -0.1875 C 5.175781 -0.207031 5.203125 -0.242188 5.203125 -0.296875 C 5.203125 -0.378906 5.148438 -0.492188 5.046875 -0.640625 C 4.953125 -0.796875 4.800781 -1.050781 4.59375 -1.40625 L 2.15625 -5.328125 L 2.125 -5.328125 L 2.125 -0.71875 C 2.125 -0.539062 2.144531 -0.410156 2.1875 -0.328125 C 2.226562 -0.242188 2.304688 -0.191406 2.421875 -0.171875 L 2.421875 0 L 0.953125 0 L 0.953125 -0.171875 C 1.085938 -0.191406 1.175781 -0.234375 1.21875 -0.296875 C 1.269531 -0.367188 1.296875 -0.503906 1.296875 -0.703125 L 1.296875 -5.828125 C 1.296875 -6.015625 1.273438 -6.144531 1.234375 -6.21875 C 1.203125 -6.300781 1.132812 -6.351562 1.03125 -6.375 L 1.03125 -6.546875 Z M 2.84375 -6.546875 "/></g></g></g><g fill="#000000" fill-opacity="1"><g transform="translate(63.257561, 11.896354)"><g/></g></g><g fill="#000000" fill-opacity="1"><g transform="translate(67.991896, 11.896354)"><g><path d="M 0.4375 -6.8125 L 0.609375 -6.8125 C 0.628906 -6.707031 0.671875 -6.632812 0.734375 -6.59375 C 0.804688 -6.5625 0.90625 -6.546875 1.03125 -6.546875 L 4.75 -6.546875 C 4.851562 -6.546875 4.941406 -6.5625 5.015625 -6.59375 C 5.097656 -6.625 5.148438 -6.695312 5.171875 -6.8125 L 5.34375 -6.8125 L 5.34375 -5.484375 L 5.171875 -5.484375 C 5.148438 -5.617188 5.101562 -5.710938 5.03125 -5.765625 C 4.957031 -5.816406 4.863281 -5.84375 4.75 -5.84375 L 3.34375 -5.84375 L 3.34375 -0.71875 C 3.34375 -0.539062 3.363281 -0.410156 3.40625 -0.328125 C 3.445312 -0.242188 3.523438 -0.191406 3.640625 -0.171875 L 3.640625 0 L 2.15625 0 L 2.15625 -0.171875 C 2.269531 -0.191406 2.34375 -0.242188 2.375 -0.328125 C 2.40625 -0.410156 2.421875 -0.535156 2.421875 -0.703125 L 2.421875 -5.84375 L 1.03125 -5.84375 C 0.914062 -5.84375 0.820312 -5.816406 0.75 -5.765625 C 0.675781 -5.722656 0.628906 -5.628906 0.609375 -5.484375 L 0.4375 -5.484375 Z M 0.4375 -6.8125 "/></g></g></g><g fill="#000000" fill-opacity="1"><g transform="translate(74.795541, 11.896354)"><g><path d="M 2.453125 -6.546875 L 2.453125 -6.375 C 2.347656 -6.351562 2.273438 -6.300781 2.234375 -6.21875 C 2.203125 -6.144531 2.1875 -6.023438 2.1875 -5.859375 L 2.1875 -3.6875 L 5.25 -3.6875 L 5.25 -5.859375 C 5.25 -6.023438 5.234375 -6.144531 5.203125 -6.21875 C 5.171875 -6.300781 5.097656 -6.351562 4.984375 -6.375 L 4.984375 -6.546875 L 6.453125 -6.546875 L 6.453125 -6.375 C 6.335938 -6.351562 6.257812 -6.300781 6.21875 -6.21875 C 6.1875 -6.144531 6.171875 -6.023438 6.171875 -5.859375 L 6.171875 -0.703125 C 6.171875 -0.535156 6.1875 -0.410156 6.21875 -0.328125 C 6.257812 -0.242188 6.335938 -0.191406 6.453125 -0.171875 L 6.453125 0 L 4.984375 0 L 4.984375 -0.171875 C 5.097656 -0.191406 5.171875 -0.242188 5.203125 -0.328125 C 5.234375 -0.410156 5.25 -0.535156 5.25 -0.703125 L 5.25 -2.984375 L 2.1875 -2.984375 L 2.1875 -0.703125 C 2.1875 -0.535156 2.203125 -0.410156 2.234375 -0.328125 C 2.273438 -0.242188 2.347656 -0.191406 2.453125 -0.171875 L 2.453125 0 L 1 0 L 1 -0.171875 C 1.101562 -0.191406 1.171875 -0.242188 1.203125 -0.328125 C 1.242188 -0.410156 1.265625 -0.535156 1.265625 -0.703125 L 1.265625 -5.859375 C 1.265625 -6.023438 1.242188 -6.144531 1.203125 -6.21875 C 1.171875 -6.300781 1.101562 -6.351562 1 -6.375 L 1 -6.546875 Z M 2.453125 -6.546875 "/></g></g></g><g fill="#000000" fill-opacity="1"><g transform="translate(83.251654, 11.896354)"><g><path d="M 5.703125 -5.484375 L 5.53125 -5.484375 C 5.507812 -5.617188 5.460938 -5.710938 5.390625 -5.765625 C 5.316406 -5.816406 5.222656 -5.84375 5.109375 -5.84375 L 2.375 -5.84375 L 2.375 -3.6875 L 4.140625 -3.6875 C 4.265625 -3.6875 4.359375 -3.710938 4.421875 -3.765625 C 4.492188 -3.828125 4.539062 -3.929688 4.5625 -4.078125 L 4.734375 -4.078125 L 4.734375 -2.625 L 4.5625 -2.625 C 4.539062 -2.757812 4.492188 -2.851562 4.421875 -2.90625 C 4.347656 -2.957031 4.257812 -2.984375 4.15625 -2.984375 L 2.375 -2.984375 L 2.375 -0.71875 L 5.234375 -0.71875 C 5.359375 -0.71875 5.453125 -0.738281 5.515625 -0.78125 C 5.585938 -0.832031 5.632812 -0.941406 5.65625 -1.109375 L 5.84375 -1.109375 L 5.84375 0.265625 L 5.65625 0.265625 C 5.632812 0.160156 5.582031 0.0859375 5.5 0.046875 C 5.414062 0.015625 5.273438 0 5.078125 0 L 1.1875 0 L 1.1875 -0.171875 C 1.300781 -0.191406 1.375 -0.242188 1.40625 -0.328125 C 1.4375 -0.421875 1.453125 -0.550781 1.453125 -0.71875 L 1.453125 -5.84375 C 1.453125 -6.039062 1.429688 -6.171875 1.390625 -6.234375 C 1.359375 -6.304688 1.289062 -6.351562 1.1875 -6.375 L 1.1875 -6.546875 L 5.0625 -6.546875 C 5.175781 -6.546875 5.273438 -6.5625 5.359375 -6.59375 C 5.453125 -6.632812 5.507812 -6.707031 5.53125 -6.8125 L 5.703125 -6.8125 Z M 5.703125 -5.484375 "/></g></g></g><g fill="#000000" fill-opacity="1"><g transform="translate(90.874089, 11.896354)"><g/></g></g><g fill="#000000" fill-opacity="1"><g transform="translate(95.608423, 11.896354)"><g><path d="M 1.9375 -6.546875 L 1.9375 -6.375 C 1.75 -6.363281 1.65625 -6.296875 1.65625 -6.171875 C 1.65625 -6.078125 1.679688 -5.945312 1.734375 -5.78125 L 2.859375 -1.546875 L 2.890625 -1.546875 L 3.84375 -5.71875 C 3.863281 -5.820312 3.875 -5.898438 3.875 -5.953125 C 3.882812 -6.015625 3.890625 -6.070312 3.890625 -6.125 C 3.890625 -6.164062 3.875 -6.210938 3.84375 -6.265625 C 3.8125 -6.316406 3.75 -6.351562 3.65625 -6.375 L 3.65625 -6.546875 L 5.28125 -6.546875 L 5.28125 -6.375 C 5.125 -6.363281 5.046875 -6.285156 5.046875 -6.140625 C 5.046875 -6.066406 5.070312 -5.929688 5.125 -5.734375 L 6.1875 -1.546875 L 6.21875 -1.546875 L 7.1875 -5.671875 C 7.21875 -5.804688 7.238281 -5.910156 7.25 -5.984375 C 7.257812 -6.066406 7.265625 -6.128906 7.265625 -6.171875 C 7.265625 -6.304688 7.175781 -6.375 7 -6.375 L 7 -6.546875 L 8.484375 -6.546875 L 8.484375 -6.375 C 8.242188 -6.375 8.09375 -6.222656 8.03125 -5.921875 L 6.859375 -0.875 C 6.835938 -0.78125 6.816406 -0.695312 6.796875 -0.625 C 6.785156 -0.550781 6.78125 -0.492188 6.78125 -0.453125 C 6.78125 -0.304688 6.832031 -0.210938 6.9375 -0.171875 L 6.9375 0 L 5.484375 0 L 5.484375 -0.171875 C 5.523438 -0.171875 5.566406 -0.1875 5.609375 -0.21875 C 5.648438 -0.257812 5.671875 -0.304688 5.671875 -0.359375 C 5.671875 -0.429688 5.65625 -0.515625 5.625 -0.609375 C 5.601562 -0.703125 5.578125 -0.820312 5.546875 -0.96875 L 4.453125 -5.15625 L 4.421875 -5.15625 L 3.484375 -0.921875 C 3.460938 -0.816406 3.4375 -0.710938 3.40625 -0.609375 C 3.382812 -0.515625 3.375 -0.441406 3.375 -0.390625 C 3.375 -0.273438 3.441406 -0.203125 3.578125 -0.171875 L 3.578125 0 L 2.109375 0 L 2.109375 -0.140625 C 2.222656 -0.160156 2.28125 -0.222656 2.28125 -0.328125 C 2.28125 -0.398438 2.265625 -0.492188 2.234375 -0.609375 C 2.203125 -0.734375 2.175781 -0.820312 2.15625 -0.875 L 0.859375 -5.8125 C 0.816406 -5.976562 0.769531 -6.109375 0.71875 -6.203125 C 0.664062 -6.296875 0.566406 -6.351562 0.421875 -6.375 L 0.421875 -6.546875 Z M 1.9375 -6.546875 "/></g></g></g><g fill="#000000" fill-opacity="1"><g transform="translate(105.717003, 11.896354)"><g><path d="M 5.703125 -5.484375 L 5.53125 -5.484375 C 5.507812 -5.617188 5.460938 -5.710938 5.390625 -5.765625 C 5.316406 -5.816406 5.222656 -5.84375 5.109375 -5.84375 L 2.375 -5.84375 L 2.375 -3.6875 L 4.140625 -3.6875 C 4.265625 -3.6875 4.359375 -3.710938 4.421875 -3.765625 C 4.492188 -3.828125 4.539062 -3.929688 4.5625 -4.078125 L 4.734375 -4.078125 L 4.734375 -2.625 L 4.5625 -2.625 C 4.539062 -2.757812 4.492188 -2.851562 4.421875 -2.90625 C 4.347656 -2.957031 4.257812 -2.984375 4.15625 -2.984375 L 2.375 -2.984375 L 2.375 -0.71875 L 5.234375 -0.71875 C 5.359375 -0.71875 5.453125 -0.738281 5.515625 -0.78125 C 5.585938 -0.832031 5.632812 -0.941406 5.65625 -1.109375 L 5.84375 -1.109375 L 5.84375 0.265625 L 5.65625 0.265625 C 5.632812 0.160156 5.582031 0.0859375 5.5 0.046875 C 5.414062 0.015625 5.273438 0 5.078125 0 L 1.1875 0 L 1.1875 -0.171875 C 1.300781 -0.191406 1.375 -0.242188 1.40625 -0.328125 C 1.4375 -0.421875 1.453125 -0.550781 1.453125 -0.71875 L 1.453125 -5.84375 C 1.453125 -6.039062 1.429688 -6.171875 1.390625 -6.234375 C 1.359375 -6.304688 1.289062 -6.351562 1.1875 -6.375 L 1.1875 -6.546875 L 5.0625 -6.546875 C 5.175781 -6.546875 5.273438 -6.5625 5.359375 -6.59375 C 5.453125 -6.632812 5.507812 -6.707031 5.53125 -6.8125 L 5.703125 -6.8125 Z M 5.703125 -5.484375 "/></g></g></g><g fill="#000000" fill-opacity="1"><g transform="translate(113.339437, 11.896354)"><g><path d="M 3.859375 -0.71875 C 4.347656 -0.71875 4.71875 -0.8125 4.96875 -1 C 5.226562 -1.195312 5.359375 -1.476562 5.359375 -1.84375 C 5.359375 -2.3125 5.210938 -2.625 4.921875 -2.78125 C 4.640625 -2.9375 4.269531 -3.015625 3.8125 -3.015625 L 2.328125 -3.015625 L 2.328125 -0.71875 Z M 3.796875 -3.65625 C 4.328125 -3.65625 4.710938 -3.757812 4.953125 -3.96875 C 5.203125 -4.175781 5.328125 -4.460938 5.328125 -4.828125 C 5.328125 -5.179688 5.1875 -5.4375 4.90625 -5.59375 C 4.632812 -5.757812 4.257812 -5.84375 3.78125 -5.84375 L 2.328125 -5.84375 L 2.328125 -3.65625 Z M 3.734375 -6.546875 C 4.515625 -6.546875 5.117188 -6.398438 5.546875 -6.109375 C 5.972656 -5.828125 6.1875 -5.40625 6.1875 -4.84375 C 6.1875 -4.5 6.078125 -4.1875 5.859375 -3.90625 C 5.648438 -3.625 5.378906 -3.453125 5.046875 -3.390625 L 5.046875 -3.359375 C 5.460938 -3.242188 5.773438 -3.050781 5.984375 -2.78125 C 6.203125 -2.507812 6.3125 -2.203125 6.3125 -1.859375 C 6.3125 -1.535156 6.25 -1.253906 6.125 -1.015625 C 6 -0.773438 5.828125 -0.578125 5.609375 -0.421875 C 5.398438 -0.273438 5.15625 -0.164062 4.875 -0.09375 C 4.59375 -0.03125 4.289062 0 3.96875 0 L 1.109375 0 L 1.109375 -0.171875 C 1.234375 -0.191406 1.3125 -0.242188 1.34375 -0.328125 C 1.382812 -0.421875 1.40625 -0.5625 1.40625 -0.75 L 1.40625 -5.8125 C 1.40625 -6 1.382812 -6.132812 1.34375 -6.21875 C 1.300781 -6.300781 1.210938 -6.351562 1.078125 -6.375 L 1.078125 -6.546875 Z M 3.734375 -6.546875 "/></g></g></g><g fill="#000000" fill-opacity="1"><g transform="translate(121.79555, 11.896354)"><g/></g></g><g fill="#000000" fill-opacity="1"><g transform="translate(126.529884, 11.896354)"><g><path d="M 2.796875 -6.546875 L 2.796875 -6.375 C 2.691406 -6.351562 2.617188 -6.300781 2.578125 -6.21875 C 2.546875 -6.144531 2.53125 -6.023438 2.53125 -5.859375 L 2.53125 -0.703125 C 2.53125 -0.535156 2.546875 -0.410156 2.578125 -0.328125 C 2.617188 -0.242188 2.691406 -0.191406 2.796875 -0.171875 L 2.796875 0 L 1.34375 0 L 1.34375 -0.171875 C 1.445312 -0.191406 1.515625 -0.242188 1.546875 -0.328125 C 1.585938 -0.410156 1.609375 -0.535156 1.609375 -0.703125 L 1.609375 -5.859375 C 1.609375 -6.023438 1.585938 -6.144531 1.546875 -6.21875 C 1.515625 -6.300781 1.445312 -6.351562 1.34375 -6.375 L 1.34375 -6.546875 Z M 2.796875 -6.546875 "/></g></g></g><g fill="#000000" fill-opacity="1"><g transform="translate(131.681063, 11.896354)"><g><path d="M 3.28125 -6.640625 C 3.644531 -6.640625 3.953125 -6.609375 4.203125 -6.546875 C 4.453125 -6.492188 4.660156 -6.429688 4.828125 -6.359375 C 4.992188 -6.285156 5.101562 -6.25 5.15625 -6.25 C 5.207031 -6.25 5.253906 -6.265625 5.296875 -6.296875 C 5.347656 -6.328125 5.394531 -6.359375 5.4375 -6.390625 L 5.546875 -6.3125 L 4.90625 -5 L 4.78125 -5.0625 C 4.789062 -5.101562 4.796875 -5.132812 4.796875 -5.15625 C 4.796875 -5.1875 4.796875 -5.210938 4.796875 -5.234375 C 4.796875 -5.335938 4.738281 -5.429688 4.625 -5.515625 C 4.507812 -5.609375 4.367188 -5.6875 4.203125 -5.75 C 4.035156 -5.8125 3.859375 -5.851562 3.671875 -5.875 C 3.484375 -5.90625 3.316406 -5.921875 3.171875 -5.921875 C 2.785156 -5.921875 2.460938 -5.828125 2.203125 -5.640625 C 1.953125 -5.453125 1.828125 -5.226562 1.828125 -4.96875 C 1.828125 -4.695312 1.929688 -4.484375 2.140625 -4.328125 C 2.359375 -4.171875 2.734375 -4.039062 3.265625 -3.9375 C 3.566406 -3.875 3.863281 -3.800781 4.15625 -3.71875 C 4.445312 -3.644531 4.703125 -3.535156 4.921875 -3.390625 C 5.140625 -3.253906 5.316406 -3.070312 5.453125 -2.84375 C 5.585938 -2.625 5.65625 -2.332031 5.65625 -1.96875 C 5.65625 -1.625 5.585938 -1.328125 5.453125 -1.078125 C 5.316406 -0.828125 5.140625 -0.613281 4.921875 -0.4375 C 4.703125 -0.257812 4.445312 -0.125 4.15625 -0.03125 C 3.863281 0.0507812 3.5625 0.09375 3.25 0.09375 C 2.945312 0.09375 2.671875 0.0625 2.421875 0 C 2.179688 -0.0625 1.972656 -0.128906 1.796875 -0.203125 C 1.628906 -0.273438 1.492188 -0.34375 1.390625 -0.40625 C 1.285156 -0.46875 1.210938 -0.5 1.171875 -0.5 C 1.097656 -0.5 1.023438 -0.445312 0.953125 -0.34375 L 0.78125 -0.421875 L 1.421875 -1.75 L 1.578125 -1.6875 C 1.554688 -1.632812 1.539062 -1.59375 1.53125 -1.5625 C 1.53125 -1.539062 1.53125 -1.519531 1.53125 -1.5 C 1.53125 -1.414062 1.578125 -1.320312 1.671875 -1.21875 C 1.765625 -1.125 1.890625 -1.03125 2.046875 -0.9375 C 2.203125 -0.84375 2.378906 -0.765625 2.578125 -0.703125 C 2.785156 -0.648438 3.003906 -0.625 3.234375 -0.625 C 3.410156 -0.625 3.59375 -0.648438 3.78125 -0.703125 C 3.96875 -0.753906 4.132812 -0.832031 4.28125 -0.9375 C 4.4375 -1.039062 4.5625 -1.175781 4.65625 -1.34375 C 4.75 -1.507812 4.796875 -1.71875 4.796875 -1.96875 C 4.796875 -2.144531 4.753906 -2.296875 4.671875 -2.421875 C 4.585938 -2.546875 4.46875 -2.644531 4.3125 -2.71875 C 4.164062 -2.800781 3.988281 -2.867188 3.78125 -2.921875 C 3.582031 -2.984375 3.363281 -3.039062 3.125 -3.09375 C 2.851562 -3.15625 2.585938 -3.222656 2.328125 -3.296875 C 2.078125 -3.378906 1.847656 -3.488281 1.640625 -3.625 C 1.441406 -3.757812 1.28125 -3.929688 1.15625 -4.140625 C 1.03125 -4.359375 0.96875 -4.632812 0.96875 -4.96875 C 0.96875 -5.488281 1.179688 -5.894531 1.609375 -6.1875 C 2.035156 -6.488281 2.59375 -6.640625 3.28125 -6.640625 Z M 3.28125 -6.640625 "/></g></g></g><g fill="#000000" fill-opacity="1"><g transform="translate(139.303498, 11.896354)"><g/></g></g><g fill="#000000" fill-opacity="1"><g transform="translate(144.037832, 11.896354)"><g><path d="M 3.765625 -3.609375 C 4.253906 -3.609375 4.632812 -3.703125 4.90625 -3.890625 C 5.175781 -4.078125 5.3125 -4.378906 5.3125 -4.796875 C 5.3125 -5.148438 5.179688 -5.410156 4.921875 -5.578125 C 4.660156 -5.753906 4.28125 -5.84375 3.78125 -5.84375 L 2.34375 -5.84375 L 2.34375 -3.609375 Z M 3.953125 -6.546875 C 4.265625 -6.546875 4.554688 -6.503906 4.828125 -6.421875 C 5.097656 -6.347656 5.332031 -6.234375 5.53125 -6.078125 C 5.738281 -5.929688 5.894531 -5.738281 6 -5.5 C 6.113281 -5.269531 6.171875 -5.003906 6.171875 -4.703125 C 6.171875 -4.285156 6.046875 -3.914062 5.796875 -3.59375 C 5.554688 -3.28125 5.222656 -3.085938 4.796875 -3.015625 L 6.09375 -0.578125 C 6.164062 -0.429688 6.238281 -0.328125 6.3125 -0.265625 C 6.382812 -0.203125 6.476562 -0.171875 6.59375 -0.171875 L 6.59375 0 L 4.921875 0 L 4.921875 -0.171875 C 4.984375 -0.179688 5.046875 -0.195312 5.109375 -0.21875 C 5.171875 -0.25 5.203125 -0.296875 5.203125 -0.359375 C 5.203125 -0.410156 5.1875 -0.46875 5.15625 -0.53125 C 5.125 -0.59375 5.09375 -0.65625 5.0625 -0.71875 L 3.9375 -2.828125 L 2.34375 -2.828125 L 2.34375 -0.75 C 2.34375 -0.5625 2.359375 -0.421875 2.390625 -0.328125 C 2.429688 -0.242188 2.523438 -0.191406 2.671875 -0.171875 L 2.671875 0 L 1.140625 0 L 1.140625 -0.171875 C 1.253906 -0.191406 1.328125 -0.242188 1.359375 -0.328125 C 1.398438 -0.421875 1.421875 -0.550781 1.421875 -0.71875 L 1.421875 -5.84375 C 1.421875 -6 1.398438 -6.117188 1.359375 -6.203125 C 1.328125 -6.296875 1.253906 -6.351562 1.140625 -6.375 L 1.140625 -6.546875 Z M 3.953125 -6.546875 "/></g></g></g><g fill="#000000" fill-opacity="1"><g transform="translate(152.493945, 11.896354)"><g><path d="M 5.703125 -5.484375 L 5.53125 -5.484375 C 5.507812 -5.617188 5.460938 -5.710938 5.390625 -5.765625 C 5.316406 -5.816406 5.222656 -5.84375 5.109375 -5.84375 L 2.375 -5.84375 L 2.375 -3.6875 L 4.140625 -3.6875 C 4.265625 -3.6875 4.359375 -3.710938 4.421875 -3.765625 C 4.492188 -3.828125 4.539062 -3.929688 4.5625 -4.078125 L 4.734375 -4.078125 L 4.734375 -2.625 L 4.5625 -2.625 C 4.539062 -2.757812 4.492188 -2.851562 4.421875 -2.90625 C 4.347656 -2.957031 4.257812 -2.984375 4.15625 -2.984375 L 2.375 -2.984375 L 2.375 -0.71875 L 5.234375 -0.71875 C 5.359375 -0.71875 5.453125 -0.738281 5.515625 -0.78125 C 5.585938 -0.832031 5.632812 -0.941406 5.65625 -1.109375 L 5.84375 -1.109375 L 5.84375 0.265625 L 5.65625 0.265625 C 5.632812 0.160156 5.582031 0.0859375 5.5 0.046875 C 5.414062 0.015625 5.273438 0 5.078125 0 L 1.1875 0 L 1.1875 -0.171875 C 1.300781 -0.191406 1.375 -0.242188 1.40625 -0.328125 C 1.4375 -0.421875 1.453125 -0.550781 1.453125 -0.71875 L 1.453125 -5.84375 C 1.453125 -6.039062 1.429688 -6.171875 1.390625 -6.234375 C 1.359375 -6.304688 1.289062 -6.351562 1.1875 -6.375 L 1.1875 -6.546875 L 5.0625 -6.546875 C 5.175781 -6.546875 5.273438 -6.5625 5.359375 -6.59375 C 5.453125 -6.632812 5.507812 -6.707031 5.53125 -6.8125 L 5.703125 -6.8125 Z M 5.703125 -5.484375 "/></g></g></g><g fill="#000000" fill-opacity="1"><g transform="translate(160.116379, 11.896354)"><g><path d="M 2.265625 -2.5 L 4.328125 -2.5 L 3.328125 -5.890625 L 3.3125 -5.890625 Z M 4.28125 -6.546875 L 4.28125 -6.375 C 4.195312 -6.34375 4.15625 -6.257812 4.15625 -6.125 C 4.15625 -6.0625 4.164062 -5.992188 4.1875 -5.921875 C 4.21875 -5.847656 4.253906 -5.722656 4.296875 -5.546875 L 5.875 -0.53125 C 5.9375 -0.332031 6.039062 -0.210938 6.1875 -0.171875 L 6.1875 0 L 4.828125 0 L 4.828125 -0.171875 C 4.878906 -0.179688 4.914062 -0.207031 4.9375 -0.25 C 4.96875 -0.300781 4.984375 -0.351562 4.984375 -0.40625 C 4.984375 -0.4375 4.972656 -0.484375 4.953125 -0.546875 C 4.929688 -0.609375 4.910156 -0.691406 4.890625 -0.796875 L 4.578125 -1.78125 L 2.015625 -1.78125 L 1.75 -0.90625 C 1.695312 -0.757812 1.660156 -0.644531 1.640625 -0.5625 C 1.617188 -0.476562 1.609375 -0.410156 1.609375 -0.359375 C 1.609375 -0.253906 1.671875 -0.191406 1.796875 -0.171875 L 1.796875 0 L 0.421875 0 L 0.421875 -0.171875 C 0.535156 -0.203125 0.617188 -0.253906 0.671875 -0.328125 C 0.734375 -0.410156 0.800781 -0.566406 0.875 -0.796875 L 2.40625 -5.546875 C 2.488281 -5.765625 2.535156 -5.90625 2.546875 -5.96875 C 2.566406 -6.039062 2.578125 -6.09375 2.578125 -6.125 C 2.578125 -6.226562 2.515625 -6.3125 2.390625 -6.375 L 2.390625 -6.546875 Z M 4.28125 -6.546875 "/></g></g></g><g fill="#000000" fill-opacity="1"><g transform="translate(167.738814, 11.896354)"><g><path d="M 3.203125 -0.71875 C 3.648438 -0.71875 4.03125 -0.757812 4.34375 -0.84375 C 4.65625 -0.925781 4.90625 -1.066406 5.09375 -1.265625 C 5.289062 -1.472656 5.429688 -1.738281 5.515625 -2.0625 C 5.609375 -2.394531 5.65625 -2.804688 5.65625 -3.296875 C 5.65625 -3.691406 5.625 -4.046875 5.5625 -4.359375 C 5.5 -4.671875 5.382812 -4.9375 5.21875 -5.15625 C 5.050781 -5.375 4.828125 -5.539062 4.546875 -5.65625 C 4.273438 -5.78125 3.929688 -5.84375 3.515625 -5.84375 L 2.28125 -5.84375 L 2.28125 -0.71875 Z M 3.78125 -6.546875 C 4.71875 -6.546875 5.414062 -6.253906 5.875 -5.671875 C 6.34375 -5.097656 6.578125 -4.3125 6.578125 -3.3125 C 6.578125 -2.164062 6.320312 -1.328125 5.8125 -0.796875 C 5.3125 -0.265625 4.5 0 3.375 0 L 1.03125 0 L 1.03125 -0.171875 C 1.164062 -0.191406 1.253906 -0.242188 1.296875 -0.328125 C 1.335938 -0.421875 1.359375 -0.5625 1.359375 -0.75 L 1.359375 -5.828125 C 1.359375 -6.023438 1.332031 -6.160156 1.28125 -6.234375 C 1.238281 -6.304688 1.144531 -6.351562 1 -6.375 L 1 -6.546875 Z M 3.78125 -6.546875 "/></g></g></g><g fill="#000000" fill-opacity="1"><g transform="translate(176.194927, 11.896354)"><g><path d="M 2.1875 -6.546875 L 2.1875 -6.375 C 2.113281 -6.363281 2.050781 -6.34375 2 -6.3125 C 1.957031 -6.289062 1.9375 -6.253906 1.9375 -6.203125 C 1.9375 -6.160156 1.945312 -6.113281 1.96875 -6.0625 C 2 -6.007812 2.023438 -5.960938 2.046875 -5.921875 L 3.3125 -3.703125 L 4.359375 -5.578125 C 4.441406 -5.722656 4.503906 -5.832031 4.546875 -5.90625 C 4.585938 -5.988281 4.609375 -6.070312 4.609375 -6.15625 C 4.609375 -6.289062 4.523438 -6.363281 4.359375 -6.375 L 4.359375 -6.546875 L 5.90625 -6.546875 L 5.90625 -6.375 C 5.832031 -6.34375 5.773438 -6.316406 5.734375 -6.296875 C 5.691406 -6.273438 5.648438 -6.242188 5.609375 -6.203125 C 5.566406 -6.160156 5.519531 -6.09375 5.46875 -6 C 5.425781 -5.914062 5.363281 -5.800781 5.28125 -5.65625 L 3.734375 -2.84375 L 3.734375 -0.703125 C 3.734375 -0.535156 3.75 -0.410156 3.78125 -0.328125 C 3.820312 -0.242188 3.894531 -0.191406 4 -0.171875 L 4 0 L 2.546875 0 L 2.546875 -0.171875 C 2.648438 -0.191406 2.71875 -0.242188 2.75 -0.328125 C 2.789062 -0.410156 2.8125 -0.535156 2.8125 -0.703125 L 2.8125 -2.828125 L 1.0625 -5.875 C 0.976562 -6.03125 0.90625 -6.140625 0.84375 -6.203125 C 0.78125 -6.265625 0.679688 -6.320312 0.546875 -6.375 L 0.546875 -6.546875 Z M 2.1875 -6.546875 "/></g></g></g></g></g></svg>